<svg width="24" height="24" viewBox="0 0 24 24" fill="none" xmlns="http://www.w3.org/2000/svg">
<path d="M10.9134 13.0848C10.7223 12.894 10.4945 12.7439 10.2438 12.6436L2.31381 9.46357C2.21912 9.42558 2.13833 9.35953 2.08226 9.27429C2.0262 9.18906 1.99755 9.08871 2.00016 8.98673C2.00278 8.88474 2.03652 8.78599 2.09688 8.70374C2.15723 8.62149 2.2413 8.55966 2.33781 8.52657L21.3378 2.02657C21.4264 1.99456 21.5223 1.98846 21.6143 2.00896C21.7062 2.02946 21.7904 2.07573 21.857 2.14235C21.9236 2.20896 21.9699 2.29317 21.9904 2.38512C22.0109 2.47707 22.0048 2.57296 21.9728 2.66157L15.4728 21.6616C15.4397 21.7581 15.3779 21.8421 15.2956 21.9025C15.2134 21.9628 15.1146 21.9966 15.0126 21.9992C14.9107 22.0018 14.8103 21.9732 14.7251 21.9171C14.6398 21.861 14.5738 21.7803 14.5358 21.6856L11.3558 13.7536C11.255 13.5031 11.1045 13.2756 10.9134 13.0848ZM10.9134 13.0848L21.8538 2.14657" stroke="#ECE6E1" stroke-width="2" stroke-linecap="round" stroke-linejoin="round"/>
</svg>
