<svg width="68" height="69" viewBox="0 0 68 69" fill="none" xmlns="http://www.w3.org/2000/svg">
<path d="M1.36254 23.3413C2.74185 19.4447 4.4153 16.0291 7.00772 12.7793C14.5249 3.35593 25.5417 -1.13229 37.4892 0.243658C37.8957 0.277194 38.2003 0.33645 38.5792 0.378341C40.4991 0.584155 42.0298 1.04209 43.8476 1.63596C50.4447 3.72692 56.2689 7.72038 60.5822 13.11C66.1072 20.0026 68.6812 28.7839 67.747 37.552C67.7135 37.863 67.6181 38.5102 67.5444 38.8218C67.2332 40.273 67.1301 41.7654 66.6576 43.2035C66.5437 43.5496 66.4999 43.9746 66.3866 44.3204C66.2433 44.8854 65.9249 45.7192 65.7187 46.2796C64.4584 49.5997 62.6603 52.6926 60.3957 55.4346C59.8819 56.054 59.2817 56.6758 58.7283 57.2791C53.7159 62.7482 46.7544 66.2707 39.4762 67.6026C38.5643 67.7691 37.4586 68.0478 36.5395 67.9971C35.9663 68.0949 33.9812 68.1051 33.4625 67.9088L33.4733 67.8443L33.6274 67.8234C33.854 67.8091 34.0807 67.8294 34.2396 67.6915C34.1934 67.6909 33.4248 67.5071 33.1136 67.4773L33.2299 67.3126C33.4146 67.3222 33.86 67.3269 34.0099 67.3944C34.0909 67.3049 34.1119 67.2792 34.1778 67.1783C33.9782 66.8585 33.3606 67.1957 32.9715 66.951L32.9805 66.8674C33.2113 66.8227 33.4511 66.8281 33.6814 66.8364C35.3817 66.8973 37.0995 66.7206 38.7465 66.3065C39.3431 66.1567 40.2227 66.0845 40.8552 66.0296C40.8942 66.103 40.8738 66.072 40.9296 66.1454L40.9709 66.1997L40.8894 66.1448L40.9835 66.2558L41.3516 66.2486C41.4206 66.2236 41.471 66.2116 41.5417 66.1943C46.8875 64.8893 52.1643 62.1371 56.2125 58.4231C56.7809 57.9015 57.4201 57.454 57.9105 56.862L57.7414 56.7415C57.7456 56.5553 57.7564 56.5272 57.6797 56.3655C55.276 58.771 52.7183 60.8762 49.6922 62.4677C49.1454 62.7548 48.3078 63.2644 47.7119 63.4112L47.7574 63.4136C47.6561 63.4547 47.6627 63.4499 47.556 63.472C48.4721 62.9236 48.643 62.6271 49.3954 62.0285C50.0388 61.5165 51.0503 61.0541 51.7446 60.5325C53.0043 59.5861 54.2879 58.663 55.4121 57.553C55.7803 57.1956 56.2665 56.7791 56.5549 56.3661C56.4572 56.2134 56.3582 56.0839 56.2497 55.9395L55.9337 56.1573C55.8114 56.3482 55.3695 56.745 55.1549 56.8542L55.0638 56.8298L54.9666 56.6203C55.0812 56.5028 55.1897 56.3816 55.2994 56.2605L55.2886 56.165C55.5878 55.6858 56.3001 55.0706 56.7276 54.6857C57.1695 54.2883 57.1946 54.2131 57.4914 53.7083C57.6647 53.611 57.6155 53.6432 57.8608 53.679C58.386 53.1545 59.2823 51.7462 59.7122 51.0886C63.0542 45.9743 64.8553 40.0149 64.9033 33.9143C64.9159 32.7547 64.8871 31.3944 64.808 30.2386C64.7672 29.6483 64.5513 28.5838 64.4416 27.9746C63.5674 23.1222 61.7376 18.7841 58.7691 14.8169C58.0077 13.799 57.2006 12.6952 56.3421 11.7434C56.1406 11.5201 55.6232 11.1674 55.3594 10.9076C53.8454 9.41576 51.7548 7.82368 49.9626 6.673C46.6296 4.58102 42.9147 3.18902 39.0601 2.40992C37.8771 2.17081 37.238 1.99257 36.0311 1.96786C35.07 1.94817 34.0981 1.79899 33.101 1.80113C25.4254 1.87984 18.0225 4.64368 12.1887 9.60857C10.3071 11.1837 8.56839 13.0089 7.14742 14.9951C6.24729 16.2533 5.50136 17.3713 4.85107 18.7797C4.46399 19.618 3.91976 20.4328 3.57375 21.3004C2.51743 24.0726 1.71695 26.8862 1.35787 29.8383C1.2 31.1361 1.03668 31.9189 1.04489 33.2213C1.05274 33.6185 1.07499 33.8869 0.972702 34.2757L0.930673 34.2622C0.826228 33.2303 0.78132 31.5815 1.05202 30.5773L1.04705 30.3725L1.02816 29.9303L0.963529 29.8721L0.750081 29.9641C0.660266 30.6714 0.540353 32.8215 0.386324 33.3347C0.412106 33.64 0.487112 34.061 0.30904 34.331C0.182291 33.7126 0.270249 29.9437 0.44874 29.3087C0.514933 28.7941 0.68335 28.2129 0.776223 27.6921C1.05994 26.1018 1.52754 24.3791 2.02261 22.8365L1.97386 22.8173L1.78416 23.0577C1.67288 23.2871 1.5794 23.4802 1.48539 23.718C1.37795 23.5555 1.38293 23.5408 1.36254 23.3413Z" fill="#F4EEDF"/>
<path d="M66.6539 35.8675C66.2738 34.9819 67.0371 33.3418 66.8452 32.873L66.7565 32.8458L66.6989 33.0643C66.603 32.9661 66.5958 32.185 66.6102 32.0298C66.7085 32.0604 66.7019 32.0978 66.7745 32.2114C66.8386 32.0297 66.3134 30.8348 66.5196 30.4869C66.5754 30.5778 66.5808 30.583 66.624 30.682C66.7553 30.3501 66.5478 28.6554 66.627 28.2354C66.8758 28.8359 66.8422 29.7986 66.9046 30.502C67.3249 35.2121 66.7271 40.105 65.2707 44.5993C65.1352 45.0175 64.8672 45.2946 64.8163 45.7598L64.8582 45.7787C64.9572 45.6507 65.0525 45.5248 65.1562 45.4006C64.9763 46.0679 64.6478 46.0506 64.5513 46.5823C64.5938 46.956 63.8066 47.9779 63.6111 48.3909C63.0385 49.6005 62.698 50.5821 61.9144 51.6908C61.7729 51.9349 61.84 51.9027 61.6266 52.0035L61.6631 51.8985C61.3993 52.2028 60.3867 53.4267 60.3741 53.7716C60.214 54.0235 59.844 54.6817 59.6918 54.8631C59.1216 55.5427 58.4939 56.1817 57.9105 56.862L57.7414 56.7415C57.7456 56.5553 57.7564 56.5272 57.6797 56.3655C57.7103 56.2605 57.6964 56.3113 57.7551 56.2517C59.013 54.9776 60.2763 53.3444 61.2338 51.8335C61.563 51.3137 61.7621 50.7838 62.0708 50.2718L62.1158 50.4365L62.1728 50.424C62.6902 49.2655 63.2376 48.1235 63.9127 47.0522C64.0176 46.885 63.9223 46.7734 63.9475 46.6993C64.5698 44.8616 65.3115 43.0379 65.7348 41.1117C65.9153 40.2921 65.992 39.4341 66.1965 38.6395L66.2097 38.5885C66.1983 38.2873 66.5136 36.204 66.6539 35.8675Z" fill="#F4EEDF"/>
<path d="M66.6539 35.8675C66.7403 36.1018 66.7348 36.163 66.7408 36.4151C66.5106 36.8869 66.4003 36.667 66.6976 37.2343C66.8397 37.5049 66.5771 38.0685 66.438 38.3463L66.4536 38.2878C66.3313 38.4437 66.3031 38.4589 66.2863 38.646L66.2097 38.5885C66.1983 38.2873 66.5136 36.204 66.6539 35.8675Z" fill="#F4EEDF"/>
<path d="M34.0099 67.3944C34.0909 67.3049 34.1119 67.2792 34.1778 67.1783C33.9782 66.8585 33.3606 67.1957 32.9715 66.951L32.9805 66.8674C33.2113 66.8227 33.4511 66.8281 33.6814 66.8364C35.3817 66.8973 37.0995 66.7206 38.7465 66.3065C39.3431 66.1567 40.2227 66.0845 40.8552 66.0296C40.8942 66.103 40.8738 66.072 40.9296 66.1454L40.9709 66.1997L40.8894 66.1448L40.9835 66.2558L41.3516 66.2486C40.8696 66.4432 40.5132 66.43 40.0156 66.5404C39.1066 66.7278 38.1197 66.9527 37.2054 67.0637C36.1651 67.1896 35.0619 67.1049 34.0409 67.3901C34.0301 67.3913 34.0201 67.3926 34.0099 67.3944Z" fill="#F4EEDF"/>
<path d="M34.0099 67.3944C34.0201 67.3926 34.0301 67.3913 34.0409 67.3901C35.0619 67.1049 36.1651 67.1896 37.2054 67.0637C38.1197 66.9527 39.1066 66.7278 40.0156 66.5404C40.226 66.5541 40.2801 66.5381 40.4288 66.667L40.4408 66.781C40.3161 66.9075 40.1062 67.0131 39.9257 66.9618L39.2836 67.0799C38.9748 67.1289 38.4424 67.1855 38.169 67.2554C37.7523 67.3693 37.6845 67.3019 37.4207 67.3598C36.9579 67.5418 36.6497 67.3819 36.2228 67.5591C36.0004 67.617 35.6238 67.611 35.3966 67.5818C34.8714 67.8724 34.6963 67.6838 34.2982 67.8831C34.0746 67.8658 33.851 67.8461 33.6274 67.8234C33.854 67.8091 34.0807 67.8294 34.2396 67.6915C34.1934 67.6909 33.4248 67.5071 33.1136 67.4773L33.2299 67.3126C33.4146 67.3222 33.86 67.3269 34.0099 67.3944Z" fill="#F4EEDF"/>
<path d="M36.2228 67.5591C36.0459 67.5418 36.0046 67.5448 35.8428 67.4803L35.8781 67.4123C36.2762 67.2852 37.0755 67.2267 37.4964 67.2303L37.4207 67.3598C36.9579 67.5418 36.6497 67.3819 36.2228 67.5591Z" fill="#F4EEDF"/>
<path d="M34.2396 67.6915C34.4284 67.5984 35.2874 67.4177 35.4847 67.4988L35.3966 67.5818C34.8714 67.8724 34.6963 67.6838 34.2982 67.8831C34.0746 67.8658 33.851 67.8461 33.6274 67.8234C33.854 67.8091 34.0807 67.8294 34.2396 67.6915Z" fill="#F4EEDF"/>
<path d="M39.2836 67.0799L39.1478 66.9928C39.3072 66.7648 39.7027 66.7953 39.9257 66.9618L39.2836 67.0799Z" fill="#F4EEDF"/>
<path d="M37.4964 67.2303L37.5424 67.2248C37.8608 67.186 37.9585 67.0696 38.151 67.1556L38.169 67.2554C37.7523 67.3693 37.6845 67.3019 37.4207 67.3598L37.4964 67.2303Z" fill="#F4EEDF"/>
<path d="M2.40186 23.1983C2.47249 23.101 2.55031 22.935 2.60775 22.8221L2.66783 22.8317C2.45025 23.3967 2.40198 23.8626 2.22703 24.3987C1.76686 25.8084 1.53147 27.192 1.2685 28.6475C1.16999 29.1925 1.1744 29.8567 1.04705 30.3725L1.02816 29.9303L0.963529 29.8721L0.750081 29.9641C1.19064 27.4413 1.491 25.6486 2.40186 23.1983Z" fill="#F4EEDF"/>
<path d="M56.8751 55.3058C57.0634 55.1167 57.2211 54.9669 57.4274 54.7962C58.0383 54.2896 58.3927 53.632 59.0864 53.1892C58.4652 54.0211 57.865 54.9269 57.1719 55.6955C56.9993 55.8996 56.7563 56.2086 56.5549 56.3661C56.4572 56.2134 56.3582 56.0839 56.2497 55.9395C56.4188 55.7258 56.6725 55.4986 56.8751 55.3058Z" fill="#F4EEDF"/>
<path d="M55.2886 56.165C55.5878 55.6858 56.3001 55.0706 56.7276 54.6857C57.1695 54.2883 57.1946 54.2131 57.4914 53.7083C57.6647 53.611 57.6155 53.6432 57.8608 53.679C57.4776 54.4106 56.0123 55.474 55.9337 56.1573C55.8114 56.3482 55.3695 56.745 55.1549 56.8542L55.0638 56.8298L54.9666 56.6203C55.0812 56.5028 55.1897 56.3816 55.2994 56.2605L55.2886 56.165Z" fill="#F4EEDF"/>
<path d="M40.6019 1.08577C41.5864 1.19706 43.6579 1.88569 44.5566 2.31164L44.5956 2.38987C43.9894 2.20142 41.5624 1.58338 41.1067 1.35125C40.9718 1.22236 40.7787 1.16077 40.6019 1.08577Z" fill="#F4EEDF"/>
<path d="M60.3741 53.7716C60.3867 53.4267 61.3993 52.2028 61.6631 51.8985L61.6266 52.0035C61.84 51.9027 61.7729 51.9349 61.9144 51.6908C61.8196 52.176 61.691 52.1671 61.4284 52.5323C61.0872 53.0055 60.8972 53.5855 60.4733 53.9984L60.3741 53.7716Z" fill="#F4EEDF"/>
<path d="M0.44874 29.3087C0.423498 30.0809 0.220544 32.8374 0.386324 33.3347C0.412106 33.64 0.487112 34.061 0.30904 34.331C0.182291 33.7126 0.270249 29.9437 0.44874 29.3087Z" fill="#F4EEDF"/>
<path d="M37.8993 0.568219L38.1499 0.66471L38.2147 0.726055C38.7519 0.660712 40.0485 0.956931 40.6019 1.08577C40.7787 1.16077 40.9718 1.22236 41.1067 1.35125C40.404 1.18005 39.8791 1.0684 39.1662 0.963615C38.84 0.915697 37.9982 0.800408 37.7464 0.712031L37.8993 0.568219Z" fill="#F4EEDF"/>
<path d="M37.4892 0.243658C37.8957 0.277194 38.2003 0.33645 38.5792 0.378341L38.6711 0.577199C38.541 0.703886 38.3837 0.658803 38.1499 0.66471L37.8993 0.568219C37.7248 0.604083 37.734 0.600771 37.5607 0.551242C37.4294 0.364225 37.4503 0.463793 37.4892 0.243658Z" fill="#F4EEDF"/>
<path d="M1.78416 23.0577C1.85089 22.6082 2.44744 21.4659 2.68823 21.0354L2.76875 21.021C2.77546 20.9906 2.78194 20.9601 2.78812 20.9296C2.71509 21.2775 2.19804 22.5237 2.02261 22.8365L1.97386 22.8173L1.78416 23.0577Z" fill="#F4EEDF"/>
<path d="M1.05202 30.5773C1.02984 31.0682 0.790174 32.9857 0.979518 33.2835L1.04489 33.2213C1.05274 33.6185 1.07499 33.8869 0.972702 34.2757L0.930673 34.2622C0.826228 33.2303 0.78132 31.5815 1.05202 30.5773Z" fill="#F4EEDF"/>
<path d="M36.5395 67.9971C35.9663 68.0949 33.9812 68.1051 33.4625 67.9088L33.4733 67.8443L33.6274 67.8234C33.851 67.8461 34.0746 67.8658 34.2982 67.8831C34.6543 68.086 35.9525 67.9165 36.5395 67.9971Z" fill="#F4EEDF"/>
<path d="M3.1021 21.3308L3.24144 21.3676C3.05198 21.8493 2.88871 22.3779 2.66783 22.8317L2.60775 22.8221C2.55031 22.935 2.47249 23.101 2.40186 23.1983C2.48322 22.8277 2.92943 21.6646 3.1021 21.3308Z" fill="#F4EEDF"/>
<path d="M3.1021 21.3308C3.17603 21.0218 3.65744 19.9033 3.9071 19.7286C3.90686 19.7343 3.29306 21.2584 3.24144 21.3676L3.1021 21.3308Z" fill="#F4EEDF"/>
<path d="M60.7904 15.0542C60.809 15.0663 60.8282 15.0784 60.8474 15.0905C62.8463 17.587 65.3411 23.2042 65.6619 26.0537C65.587 25.9738 65.1037 24.0302 64.9832 23.6931C64.3351 21.8842 63.4381 19.7666 62.5813 18.0952C62.2198 17.3904 60.8456 15.409 60.7904 15.0542Z" fill="#F4EEDF"/>
<path d="M59.3765 55.7329L59.2164 55.9895L59.2416 56.0325C59.4443 55.931 59.4725 55.9221 59.6379 55.7729L59.7519 55.8576C59.3855 56.3476 59.0941 56.1614 58.8825 56.4174C57.4993 58.09 55.9032 59.4762 54.2065 60.8213C53.5541 61.3386 53.1908 61.6418 52.4197 62.0004C52.5834 61.831 52.7201 61.7212 52.9084 61.5827C54.7904 60.2013 56.5753 58.7124 58.1426 56.9789C58.5197 56.5618 58.946 56.0904 59.3765 55.7329Z" fill="#F4EEDF"/>
<path d="M60.7026 54.1034C60.9233 53.8653 61.036 53.626 61.2254 53.3712C61.8742 52.497 62.4767 51.6681 62.9684 50.6907C63.0607 50.5075 63.1147 50.4084 63.2855 50.3607C62.8982 51.4974 61.4059 53.5353 60.6109 54.5074C60.4352 54.7222 59.7147 55.5998 59.6379 55.7729C59.4725 55.9221 59.4443 55.931 59.2416 56.0325L59.2164 55.9895L59.3765 55.7329C59.822 55.1923 60.2637 54.6488 60.7026 54.1034Z" fill="#F4EEDF"/>
<path d="M67.0431 39.5205L67.1816 39.4628C67.3609 39.9428 66.4543 43.1304 66.2367 43.7764L66.1336 43.7862C66.112 43.4749 66.3338 42.9902 66.3956 42.7095C66.5365 42.0706 67.1324 40.0755 67.0431 39.5205Z" fill="#F4EEDF"/>
<path d="M66.0335 25.382C66.347 25.8076 66.7248 27.7419 66.5581 28.2075C66.5059 28.1329 66.0508 25.6173 66.0335 25.382Z" fill="#F4EEDF"/>
<path d="M54.0894 7.80032L54.1398 7.78122C54.3874 7.88362 55.782 9.05483 55.9217 9.32641C55.6963 9.32486 54.2207 8.02582 54.0894 7.80032Z" fill="#F4EEDF"/>
<path d="M63.5695 50.005L63.3974 50.0904C63.4724 49.7938 64.223 48.3626 64.4425 48.1656C64.5012 48.6344 63.8051 49.5199 63.5695 50.005Z" fill="#F4EEDF"/>
<path d="M65.7055 26.4837L65.859 26.5799C66.0892 27.3044 66.1636 27.8902 66.3176 28.6246L66.2661 28.6755C66.1072 28.5528 65.7714 26.8137 65.7055 26.4837Z" fill="#F4EEDF"/>
<path d="M44.9126 2.47196C45.2424 2.5191 46.4463 2.98987 46.6088 3.28597C46.4169 3.22981 45.0397 2.67515 44.903 2.58182L44.9126 2.47196Z" fill="#F4EEDF"/>
<path d="M52.108 62.1096C52.1308 62.1001 52.1919 62.1037 52.2213 62.1031L52.2117 62.2027C51.8789 62.4552 51.467 62.6527 51.0893 62.8365L51.0342 62.8884L51.0276 62.8192C51.31 62.5232 51.741 62.2845 52.108 62.1096Z" fill="#F4EEDF"/>
<path d="M65.2537 22.7398C65.6056 23.0261 65.7069 23.7809 65.7777 24.2313C65.4773 23.8445 65.34 23.2188 65.2537 22.7398Z" fill="#F4EEDF"/>
<path d="M48.3426 4.04738C48.6789 4.16249 49.3511 4.39939 49.5477 4.67466C49.2743 4.69435 48.5039 4.27771 48.3426 4.04738Z" fill="#F4EEDF"/>
<path d="M47.1752 3.46967C47.4774 3.50559 48.1387 3.77215 48.2999 4.05817C48.0349 4.05858 47.3946 3.67083 47.1752 3.46967Z" fill="#F4EEDF"/>
<path d="M49.5477 4.67466C49.7498 4.66398 50.0853 4.92828 50.2424 5.05837L50.2484 5.0974C50.0841 5.11226 49.5573 4.84694 49.5477 4.67466Z" fill="#F4EEDF"/>
<path d="M60.1061 14.0356C60.3316 14.1085 60.5516 14.4925 60.5198 14.7222C60.3633 14.5324 60.2278 14.3558 60.0809 14.1598L60.1061 14.0356Z" fill="#F4EEDF"/>
<path d="M51.8204 6.11149L51.8923 6.1458C52.2317 6.31062 52.339 6.34326 52.4535 6.67892C52.2125 6.52693 51.9115 6.37495 51.8204 6.11149Z" fill="#F4EEDF"/>
<path d="M38.2485 10.671C41.5245 10.5024 45.5614 11.0422 48.0274 13.2997C53.0075 17.8577 51.7735 25.9731 47.501 30.5398C43.6488 34.6571 38.4817 36.9695 33.0388 38.0605C31.555 38.3579 29.6862 38.5052 28.1995 38.5905C27.3201 43.4972 26.3429 48.3738 25.6689 53.3169C25.4695 54.7801 25.4298 56.6509 24.1172 57.5442C23.9887 57.6319 23.9849 57.6361 23.8494 57.6003C23.5293 56.5107 26.3362 40.8317 26.8069 38.6417C26.058 38.3549 25.0432 37.9736 26.1824 37.2764C26.6173 37.2902 26.7739 37.2833 27.2035 37.2183C27.2543 36.5284 27.4676 35.6618 27.617 34.9591C28.6838 29.9423 29.8677 24.8843 31.6486 20.0668C31.796 19.6679 32.7864 16.8488 33.4136 17.3121C33.4891 17.5348 33.4657 17.8528 33.4004 18.0768C32.7906 20.1509 32.0304 22.2135 31.4572 24.2972C30.4474 27.9675 29.7515 31.7196 28.8727 35.4174C28.7779 36.0089 28.6655 36.5369 28.5369 37.1226C37.1585 37.1746 48.5988 31.4691 49.8705 22.1519C50.1655 19.9919 49.7782 16.9611 48.3254 15.2453C43.0246 8.98392 32.0208 12.0495 26.434 16.3358C22.1496 19.6622 18.3163 23.7569 17.3916 29.133C16.9422 31.7458 17.5601 34.403 19.2694 36.3871C19.4777 36.6337 19.7765 37.0325 19.7259 37.3575C19.6462 37.4642 19.5688 37.5682 19.421 37.5773C17.0843 37.7217 15.9628 34.1652 15.7727 32.3485C15.329 28.1075 17.296 23.8064 19.9336 20.5889C23.6567 16.047 28.7061 12.6455 34.4496 11.2448C35.6883 10.9407 36.9852 10.8038 38.2485 10.671Z" fill="#F4EEDF"/>
<path d="M4.25682 50.4717C5.84603 52.9177 7.3013 55.1035 9.38894 57.2011C10.9992 58.8188 12.6107 60.0469 14.4063 61.4247L14.3986 61.4564C13.7681 61.1687 12.8544 60.4258 12.2776 59.9759C9.82405 58.0753 7.67639 55.813 5.90887 53.2674C5.29089 52.3884 4.78845 51.5058 4.21401 50.6728L4.25682 50.4717Z" fill="#F4EEDF"/>
<path d="M1.48539 23.718C1.48641 24.0155 1.25596 24.7111 1.14564 25.0015L1.08101 25.0001L1.02315 24.7219C0.821573 24.889 0.533841 26.3474 0.5074 26.6683L0.501883 26.7425L0.390064 26.8128L0.335622 26.7579C0.386765 26.2903 1.02451 23.6156 1.36254 23.3413C1.38293 23.5408 1.37795 23.5555 1.48539 23.718Z" fill="#F4EEDF"/>
<path d="M25.1004 66.5369C24.6913 66.4694 21.5317 65.5409 21.3972 65.1596C22.1562 65.3517 24.2918 66.3477 24.9842 66.2301L25.1395 66.43L25.1004 66.5369Z" fill="#F4EEDF"/>
<path d="M33.1136 67.4773C32.3045 67.3478 31.4075 67.3318 30.5885 67.1927C30.3218 67.1474 29.9792 67.3091 29.8031 67.1354C29.8991 67.1062 30.2977 67.0573 30.4464 67.028C31.0681 67.2452 32.5164 67.2601 33.2299 67.3126L33.1136 67.4773Z" fill="#F4EEDF"/>
<path d="M0.280072 26.8678C0.446812 27.221 0.125203 28.4135 0.0456406 28.9042C-0.107789 28.5285 0.165375 27.2723 0.280072 26.8678Z" fill="#F4EEDF"/>
<path d="M18.4416 60.8786C18.7821 60.8607 19.7549 61.4073 20.0369 61.6204C19.6395 61.6592 18.7889 61.1 18.4416 60.8786Z" fill="#F4EEDF"/>
<path d="M3.46944 49.4416C3.33238 49.1318 2.77688 48.0828 2.77443 47.853C2.91161 47.9178 3.4758 49.0805 3.59277 49.3044L3.46944 49.4416Z" fill="#F4EEDF"/>
<path d="M24.9842 66.2301C25.4631 66.4766 26.1111 66.5518 26.2294 66.6604L26.2144 66.7374C25.8904 66.8066 25.303 66.5273 25.1004 66.5369L25.1395 66.43L24.9842 66.2301Z" fill="#F4EEDF"/>
<path d="M55.2886 56.165L55.2994 56.2605C55.1897 56.3816 55.0812 56.5028 54.9666 56.6203C54.7034 56.871 54.4003 57.17 54.091 57.3561C54.1263 57.1718 55.0656 56.3584 55.2886 56.165Z" fill="#F4EEDF"/>
<path d="M3.46944 49.4416L3.59277 49.3044C3.6947 49.4786 4.21487 50.3475 4.25594 50.4716L4.21314 50.6727C3.94789 50.2896 3.78692 49.8665 3.46944 49.4416Z" fill="#F4EEDF"/>
<path d="M21.1641 63.8731C21.3856 63.8451 22.3078 64.3081 22.5078 64.4776C22.0056 64.4722 21.5255 64.2037 21.1641 63.8731Z" fill="#F4EEDF"/>
<path d="M33.3711 64.7424C33.7404 64.7131 34.4167 64.6272 34.7387 64.8021C34.4275 64.8486 33.6415 64.8838 33.3711 64.7424Z" fill="#F4EEDF"/>
<path d="M45.8752 64.1006L45.9574 64.205C45.901 64.3423 45.4963 64.5631 45.344 64.6579L45.3075 64.6197L45.3218 64.5183C45.5041 64.3763 45.6888 64.2372 45.8752 64.1006Z" fill="#F4EEDF"/>
<path d="M27.7458 66.8837C28.0467 66.8437 28.2703 66.7483 28.4589 67.0126C28.1299 66.9899 28.0621 66.9816 27.7458 66.8837Z" fill="#F4EEDF"/>
</svg>
