<svg width="24" height="24" viewBox="0 0 24 24" fill="none" xmlns="http://www.w3.org/2000/svg">
<path d="M20.9869 12.4859C20.8932 14.2221 20.2986 15.8939 19.275 17.2993C18.2514 18.7047 16.8426 19.7836 15.2189 20.4054C13.5953 21.0273 11.8262 21.1655 10.1257 20.8034C8.42514 20.4414 6.86587 19.5944 5.63638 18.3651C4.40688 17.1357 3.5598 15.5765 3.19753 13.876C2.83526 12.1755 2.97331 10.4065 3.59499 8.78273C4.21668 7.159 5.29537 5.7501 6.70069 4.72635C8.10601 3.70259 9.77778 3.10782 11.5139 3.01391C11.9189 2.99191 12.1309 3.47391 11.9159 3.81691C11.1968 4.96746 10.8889 6.32778 11.0424 7.67586C11.1959 9.02394 11.8018 10.2802 12.7612 11.2396C13.7206 12.199 14.9769 12.8049 16.325 12.9584C17.673 13.1119 19.0334 12.804 20.1839 12.0849C20.5279 11.8699 21.0089 12.0809 20.9869 12.4859Z" stroke="#ECE6E1" stroke-width="2" stroke-linecap="round" stroke-linejoin="round"/>
</svg>
